Coordinates
version=1
nRows=17
nColumns=33
inDegrees=yes

Units are S.I. units (second, meters, Newtons, ...)
Angles are in degrees.

endheader
time	ground_thorax_rot_x	ground_thorax_rot_y	ground_thorax_rot_z	ground_thorax_tx	ground_thorax_ty	ground_thorax_tz	clav_prot_r	clav_elev_r	scapula_abduction_r	scapula_elevation_r	scapula_upward_rot_r	scapula_winging_r	shoulder_elv_r	plane_of_elev_r	axial_rot_r	elbow_flexion_r	pro_sup_r	wrist_flex_r	wrist_dev_r	clav_prot_l	clav_elev_l	scapula_abduction_l	scapula_elevation_l	scapula_upward_rot_l	scapula_winging_l	shoulder_elv_l	plane_of_elev_l	axial_rot_l	elbow_flexion_l	pro_sup_l	wrist_flex_l	wrist_dev_l
      9.45000000	    -37.62537659	    -13.98189704	     25.60438654	   -237.73533828	    833.14911513	      6.88248024	      6.87162898	    -45.00000000	     38.13041060	    -45.00000000	    -36.67145151	  -2263.58423716	  -1727.02870822	     33.30418603	     66.15340914	   1813.47202147	     22.69150021	     18.54799440	      3.86034817	     14.18974084	     37.24984775	    -36.37909962	    -45.00000000	    -45.00000000	   1886.71843104	  -3334.12985486	    136.67984989	    164.55951120	    370.30684405	      0.84717987	      5.15046494	    -19.13426557
      9.46000000	    -37.69459415	    -13.86914804	     25.42060414	   -239.03929064	    833.37836900	      6.91962284	      6.87151126	    -45.00000000	     38.04571558	    -45.00000000	    -36.90227211	  -2263.62643942	  -1726.98747840	     33.33831687	     66.03688297	   1813.59894435	     24.39595158	     18.45142854	      3.60528261	     14.13060382	     37.28798618	    -36.30692244	    -45.00000000	    -45.00000000	   1886.71196620	  -3334.17764728	    136.69527754	    164.41351843	    370.34665441	      1.80525039	      4.97384841	    -19.14376481
      9.47000000	    -37.82017121	    -13.77702559	     25.27476721	   -240.31475333	    833.57386398	      6.95280746	      6.82541742	    -45.00000000	     37.94363176	    -45.00000000	    -37.04265319	  -2263.67964777	  -1727.00387055	     33.29788469	     65.88252016	   1813.77342388	     25.94183750	     18.33711405	      3.32217164	     14.01121319	     37.40512008	    -36.31269081	    -45.00000000	    -45.00000000	   1886.70010832	  -3334.10871766	    136.86602351	    164.28209295	    370.40518024	      2.66520491	      4.88615142	    -19.16335124
      9.48000000	    -37.84875027	    -13.72668518	     25.12042434	   -241.56386020	    833.73571975	      6.98119416	      6.86716503	    -45.00000000	     37.89099157	    -45.00000000	    -37.37544431	  -2263.73632975	  -1726.91989566	     33.39472373	     65.85150149	   1813.91803649	     27.56691142	     18.23324652	      3.12766214	     14.03789796	     37.32730930	    -36.19167762	    -45.00000000	    -45.00000000	   1886.75831560	  -3334.15357086	    136.82679358	    164.28482305	    370.39829618	      3.50690145	      4.68716424	    -19.14630674
      9.49000000	    -37.94781019	    -13.51127423	     24.94948756	   -242.78570909	    833.86297608	      7.00391725	      6.81526862	    -45.00000000	     37.78710618	    -45.00000000	    -37.46444699	  -2263.72156192	  -1726.99645886	     33.32385654	     65.70029184	   1813.91696112	     29.01427496	     18.05325140	      2.87976951	     13.83139568	     37.56846939	    -36.22792149	    -45.00000000	    -45.00000000	   1886.52120545	  -3334.11285523	    137.08741184	    163.94418401	    370.39437154	      4.33684917	      4.69926018	    -19.16709394
      9.50000000	    -38.00806019	    -13.56714485	     24.86838177	   -243.98777705	    833.95599297	      7.02092900	      6.90380678	    -45.00000000	     37.69430012	    -45.00000000	    -37.87314694	  -2263.82354813	  -1726.95044308	     33.45658753	     65.83900875	   1814.09239323	     30.56043106	     17.97069853	      2.76407304	     13.98719682	     37.29150933	    -36.04914000	    -45.00000000	    -45.00000000	   1886.75611158	  -3334.07458021	    136.90522737	    164.24457443	    370.42906748	      5.04859508	      4.39699054	    -19.13048991
      9.51000000	    -38.02215829	    -13.57594181	     24.81651827	   -245.16466110	    834.01372510	      7.03204424	      6.93357705	    -45.00000000	     37.70328963	    -45.00000000	    -38.23597469	  -2263.87232546	  -1726.90738086	     33.42834402	     65.74215580	   1814.29678779	     32.28078302	     17.84793473	      2.59346969	     13.98264661	     37.26331015	    -35.97659267	    -45.00000000	    -45.00000000	   1886.84934325	  -3334.16728740	    136.88642352	    164.13313305	    370.35834251	      5.95610537	      4.25076311	    -19.10471635
      9.52000000	    -38.11894734	    -13.51657980	     24.67855165	   -246.31720481	    834.03704717	      7.03748681	      6.90419622	    -45.00000000	     37.50836726	    -45.00000000	    -38.39614579	  -2263.87191211	  -1726.95461829	     33.45375831	     65.62849377	   1814.36759248	     33.80014821	     17.65182066	      2.38068554	     13.82632922	     37.43106238	    -35.91871208	    -45.00000000	    -45.00000000	   1886.75387052	  -3334.11954556	    137.09072643	    163.84932190	    370.43368987	      6.78586818	      4.20903115	    -19.13410826
      9.53000000	    -38.18840578	    -13.32117975	     24.43218230	   -247.44874149	    834.02629880	      7.03757124	      6.92783468	    -45.00000000	     37.50021754	    -45.00000000	    -38.31087209	  -2263.87806369	  -1727.04932932	     33.39704077	     65.91352802	   1814.29910251	     35.27677673	     17.51118192	      2.32427040	     13.83833316	     37.38345470	    -35.81051955	    -45.00000000	    -45.00000000	   1886.63922128	  -3334.08861806	    137.03136985	    163.87562721	    370.36727810	      7.49429415	      4.06535781	    -19.10185074
      9.54000000	    -38.20996995	    -13.39091997	     24.44518770	   -248.55857585	    833.98254324	      7.03290239	      6.92801221	    -45.00000000	     37.42748540	    -45.00000000	    -38.82950887	  -2263.97338531	  -1727.00781601	     33.43510945	     66.03220256	   1814.60943443	     36.74967228	     17.37553754	      2.14179911	     13.88526265	     37.26686089	    -35.68879620	    -45.00000000	    -45.00000000	   1886.81496290	  -3334.12707656	    136.93906899	    164.01497176	    370.37864982	      8.20312215	      3.92152949	    -19.08054124
      9.55000000	    -38.24497965	    -13.37313208	     24.40782796	   -249.64604853	    833.90687713	      7.02416322	      6.95826202	    -45.00000000	     37.34254877	    -45.00000000	    -39.12146871	  -2263.99175342	  -1727.04022331	     33.40050523	     65.88631223	   1814.69420718	     38.26578910	     17.18835710	      2.01266524	     13.79492540	     37.35750082	    -35.64893977	    -45.00000000	    -45.00000000	   1886.74443403	  -3334.15782249	    137.11533590	    163.74779858	    370.39902353	      9.00030675	      3.87039846	    -19.09376475
      9.56000000	    -38.29245440	    -13.30883883	     24.22397828	   -250.71445693	    833.80120148	      7.01234471	      6.97686819	    -45.00000000	     37.29746127	    -45.00000000	    -39.24025754	  -2264.00887745	  -1727.07561810	     33.39736146	     66.12165403	   1814.77566558	     39.73535045	     17.07631834	      1.97101188	     13.82310102	     37.26069008	    -35.51507713	    -45.00000000	    -45.00000000	   1886.78743439	  -3334.15377420	    136.99127395	    163.81179291	    370.33303239	      9.67465366	      3.67718118	    -19.03951589
      9.57000000	    -38.30080037	    -13.34948782	     24.13311799	   -251.76202969	    833.66787783	      6.99852457	      6.96326136	    -45.00000000	     37.21008124	    -45.00000000	    -39.63404649	  -2264.02057974	  -1727.05806018	     33.46620731	     66.17375027	   1814.94777717	     41.13298568	     16.86910027	      1.81161131	     13.77841187	     37.30749722	    -35.39418413	    -45.00000000	    -45.00000000	   1886.75048064	  -3334.18941741	    137.08197505	    163.69177225	    370.34558387	     10.37828280	      3.67045008	    -19.05259814
      9.58000000	    -38.32342031	    -13.34489716	     24.19357228	   -252.78934136	    833.50983062	      6.98367271	      7.02133230	    -45.00000000	     37.16509705	    -45.00000000	    -39.86213565	  -2264.14664223	  -1727.07228790	     33.37484593	     66.23587698	   1815.10617744	     42.61912130	     16.74299029	      1.76821375	     13.81003756	     37.20201182	    -35.37535236	    -45.00000000	    -45.00000000	   1886.87180859	  -3334.21634631	    137.05054906	    163.72377940	    370.39139802	     11.05860733	      3.46293352	    -19.01568846
      9.59000000	    -38.34658888	    -13.36362420	     24.16596691	   -253.79685845	    833.32999987	      6.96862508	      7.03123458	    -45.00000000	     37.10236859	    -45.00000000	    -40.06896745	  -2264.17456253	  -1727.15202054	     33.28731153	     66.29223563	   1815.22546249	     44.14561011	     16.51869197	      1.65111336	     13.73089021	     37.30665596	    -35.33441549	    -45.00000000	    -45.00000000	   1886.81840363	  -3334.24511316	    137.21109337	    163.52880034	    370.41834957	     11.82008951	      3.43414479	    -19.02252687
      9.60000000	    -38.39268854	    -13.28691509	     23.92727348	   -254.78273924	    833.13155004	      6.95388288	      7.04108343	    -45.00000000	     37.05658590	    -45.00000000	    -40.17486619	  -2264.16876092	  -1727.16893064	     33.32699961	     66.59140662	   1815.35042251	     45.53882271	     16.42015695	      1.65900172	     13.75745569	     37.18185766	    -35.13601890	    -45.00000000	    -45.00000000	   1886.85722764	  -3334.20260549	    137.00427612	    163.54258626	    370.34487985	     12.45445706	      3.24698188	    -18.95583739
      9.61000000	    -38.35077306	    -13.34625711	     23.93841306	   -255.74484000	    832.91733673	      6.93978661	      7.02305691	    -45.00000000	     37.02189047	    -45.00000000	    -40.52136321	  -2264.24012030	  -1727.14037530	     33.31325055	     66.71705183	   1815.49734335	     46.85726438	     16.17753536	      1.52427311	     13.71670648	     37.24224664	    -35.10201158	    -45.00000000	    -45.00000000	   1886.78722302	  -3334.33096799	    137.20633704	    163.58604968	    370.42900849	     13.09738243	      3.23814940	    -18.96658140
